<svg width="486" height="486" viewBox="0 0 486 486" fill="none" xmlns="http://www.w3.org/2000/svg">
<path d="M471.881 407.567L360.566 296.243C343.98 322.038 322.03 343.977 296.235 360.564L407.559 471.888C425.331 489.656 454.146 489.656 471.88 471.888C489.653 454.149 489.653 425.334 471.881 407.567Z" fill="#7B0828"/>
<path d="M363.908 181.955C363.908 81.473 282.439 0 181.955 0C81.473 0 0 81.473 0 181.955C0 282.437 81.473 363.906 181.955 363.906C282.439 363.906 363.908 282.437 363.908 181.955ZM181.955 318.416C106.703 318.416 45.49 257.208 45.49 181.956C45.49 106.704 106.703 45.491 181.955 45.491C257.205 45.491 318.423 106.704 318.423 181.956C318.423 257.208 257.205 318.416 181.955 318.416Z" fill="#7B0828"/>
<path d="M75.816 181.955H106.138C106.138 140.152 140.152 106.141 181.954 106.141V75.8159C123.437 75.8159 75.816 123.437 75.816 181.955Z" fill="#7B0828"/>
</svg>
